<?xml version="1.0" encoding="UTF-8" standalone="no"?>
<svg width="2623px" height="2923px" viewBox="0 0 2623 2923" version="1.1" xmlns="http://www.w3.org/2000/svg" xmlns:xlink="http://www.w3.org/1999/xlink">
    <!-- Generator: Sketch 42 (36781) - http://www.bohemiancoding.com/sketch -->
    <title>city-icon</title>
    <desc>Created with Sketch.</desc>
    <defs></defs>
    <g id="Page-1" stroke="none" stroke-width="1" fill="none" fill-rule="evenodd">
        <g id="city-icon">
            <rect id="Rectangle" fill="#000000" x="0" y="1138" width="724" height="1784"></rect>
            <rect id="Rectangle-Copy" fill="#000000" x="833" y="518" width="948" height="2404"></rect>
            <rect id="Rectangle-Copy-2" fill="#000000" x="1901" y="1397" width="722" height="1525.49156"></rect>
            <rect id="Rectangle-2" fill="#FFFFFF" x="106" y="1330" width="197" height="197"></rect>
            <rect id="Rectangle-2-Copy" fill="#FFFFFF" x="443" y="1330" width="197" height="197"></rect>
            <rect id="Rectangle-2-Copy-3" fill="#FFFFFF" x="106" y="1622" width="197" height="197"></rect>
            <rect id="Rectangle-2-Copy-2" fill="#FFFFFF" x="443" y="1622" width="197" height="197"></rect>
            <rect id="Rectangle-2-Copy-5" fill="#FFFFFF" x="106" y="1921" width="197" height="197"></rect>
            <rect id="Rectangle-2-Copy-4" fill="#FFFFFF" x="443" y="1921" width="197" height="197"></rect>
            <rect id="Rectangle-2-Copy-7" fill="#FFFFFF" x="106" y="2213" width="197" height="197"></rect>
            <rect id="Rectangle-2-Copy-6" fill="#FFFFFF" x="443" y="2213" width="197" height="197"></rect>
            <rect id="Rectangle-2-Copy-9" fill="#FFFFFF" x="106" y="2505" width="197" height="197"></rect>
            <rect id="Rectangle-2-Copy-8" fill="#FFFFFF" x="443" y="2505" width="197" height="197"></rect>
            <rect id="Rectangle-2-Copy-19" fill="#FFFFFF" x="988" y="746" width="234.929141" height="238.927114"></rect>
            <rect id="Rectangle-2-Copy-18" fill="#FFFFFF" x="1390" y="746" width="234.929141" height="238.927114"></rect>
            <rect id="Rectangle-2-Copy-17" fill="#FFFFFF" x="988" y="1100" width="234.929141" height="238.927114"></rect>
            <rect id="Rectangle-2-Copy-16" fill="#FFFFFF" x="1390" y="1100" width="234.929141" height="238.927114"></rect>
            <rect id="Rectangle-2-Copy-15" fill="#FFFFFF" x="988" y="1463" width="234.929141" height="238.927114"></rect>
            <rect id="Rectangle-2-Copy-14" fill="#FFFFFF" x="1390" y="1463" width="234.929141" height="238.927114"></rect>
            <rect id="Rectangle-2-Copy-13" fill="#FFFFFF" x="988" y="1817" width="234.929141" height="238.927114"></rect>
            <rect id="Rectangle-2-Copy-12" fill="#FFFFFF" x="1390" y="1817" width="234.929141" height="238.927114"></rect>
            <rect id="Rectangle-2-Copy-29" fill="#FFFFFF" x="1988" y="1647" width="202.978628" height="206.565345"></rect>
            <rect id="Rectangle-2-Copy-28" fill="#FFFFFF" x="2335" y="1647" width="202.978628" height="206.565345"></rect>
            <rect id="Rectangle-2-Copy-27" fill="#FFFFFF" x="1988" y="1953" width="202.978628" height="206.565345"></rect>
            <rect id="Rectangle-2-Copy-26" fill="#FFFFFF" x="2335" y="1953" width="202.978628" height="206.565345"></rect>
            <rect id="Rectangle-2-Copy-25" fill="#FFFFFF" x="1988" y="2267" width="202.978628" height="206.565345"></rect>
            <rect id="Rectangle-2-Copy-24" fill="#FFFFFF" x="2335" y="2267" width="202.978628" height="206.565345"></rect>
            <rect id="Rectangle-2-Copy-23" fill="#FFFFFF" x="1988" y="2573" width="202.978628" height="206.565345"></rect>
            <rect id="Rectangle-2-Copy-22" fill="#FFFFFF" x="2335" y="2573" width="202.978628" height="206.565345"></rect>
            <rect id="Rectangle-2-Copy-11" fill="#FFFFFF" x="988" y="2171" width="234.929141" height="238.927114"></rect>
            <rect id="Rectangle-2-Copy-10" fill="#FFFFFF" x="1390" y="2171" width="234.929141" height="238.927114"></rect>
            <rect id="Rectangle-2-Copy-21" fill="#FFFFFF" x="988" y="2583" width="234.929141" height="238.927114"></rect>
            <rect id="Rectangle-2-Copy-20" fill="#FFFFFF" x="1390" y="2583" width="234.929141" height="238.927114"></rect>
            <path d="M1284,20.0019024 C1284,8.95515672 1292.95097,0 1304.00038,0 L1310.99962,0 C1322.04552,0 1331,8.95527683 1331,20.0019024 L1331,1100 L1284,1100 L1284,20.0019024 Z" id="Rectangle-3" fill="#000000"></path>
        </g>
    </g>
</svg>