<?xml version="1.0" encoding="UTF-8" standalone="no"?>
<svg
   xmlns:dc="http://purl.org/dc/elements/1.1/"
   xmlns:cc="http://creativecommons.org/ns#"
   xmlns:rdf="http://www.w3.org/1999/02/22-rdf-syntax-ns#"
   xmlns:svg="http://www.w3.org/2000/svg"
   xmlns="http://www.w3.org/2000/svg"
   xmlns:sodipodi="http://sodipodi.sourceforge.net/DTD/sodipodi-0.dtd"
   xmlns:inkscape="http://www.inkscape.org/namespaces/inkscape"
   width="729"
   height="244"
   viewBox="0 0 729.2 244"
   class="undefined"
   id="svg2"
   version="1.1"
   inkscape:version="0.91 r13725"
   sodipodi:docname="bus_icon_op.svg">
  <metadata
     id="metadata18">
    <rdf:RDF>
      <cc:Work
         rdf:about="">
        <dc:format>image/svg+xml</dc:format>
        <dc:type
           rdf:resource="http://purl.org/dc/dcmitype/StillImage" />
      </cc:Work>
    </rdf:RDF>
  </metadata>
  <defs
     id="defs16" />
  <sodipodi:namedview
     pagecolor="#ffffff"
     bordercolor="#666666"
     borderopacity="1"
     objecttolerance="10"
     gridtolerance="10"
     guidetolerance="10"
     inkscape:pageopacity="0"
     inkscape:pageshadow="2"
     inkscape:window-width="1317"
     inkscape:window-height="696"
     id="namedview14"
     showgrid="false"
     inkscape:zoom="0.60138025"
     inkscape:cx="104.77089"
     inkscape:cy="49.762139"
     inkscape:window-x="4"
     inkscape:window-y="23"
     inkscape:window-maximized="0"
     inkscape:current-layer="svg2" />
  <style
     id="style4">
  .a{
    fill:#231f20;
  }
</style>
  <path
     style="fill:#231f20"
     d="M 52.126953 0.05078125 C 19.635868 0.05078125 1.8902135 16.29616 0.390625 42.164062 L 0.390625 42.289062 C -1.1089635 68.156965 0.890625 214.74219 0.890625 214.74219 L 148.59961 214.86719 C 148.59961 214.86719 149.72434 155.50781 198.58594 155.50781 C 247.32257 155.50781 250.32227 214.61719 250.32227 214.61719 L 512.125 214.61719 C 512.125 214.61719 509.25032 156.88281 560.23633 156.88281 C 611.3473 156.88281 608.34961 213.86719 608.34961 213.86719 L 710.44531 213.86719 C 734.06383 213.86719 728.19141 133.26412 728.19141 120.64258 C 728.19141 108.14601 715.56836 105.14648 715.56836 105.14648 L 715.56836 21.544922 C 715.56836 5.1744135 715.56959 0.05078125 684.45312 0.05078125 L 52.126953 0.05078125 z M 41.128906 42.414062 L 147.84961 42.414062 L 147.84961 103.39844 L 21.384766 103.39844 L 21.384766 62.158203 C 21.384766 51.286186 30.256889 42.414062 41.128906 42.414062 z M 173.34375 42.414062 L 299.80859 42.414062 L 299.80859 103.39844 L 173.34375 103.39844 L 173.34375 42.414062 z M 325.30078 42.414062 L 451.76758 42.414062 L 451.76758 103.39844 L 325.30078 103.39844 L 325.30078 42.414062 z M 477.25977 42.414062 L 603.72461 42.414062 L 603.72461 103.39844 L 477.25977 103.39844 L 477.25977 42.414062 z M 640.33984 42.414062 L 678.08008 42.414062 L 678.08008 184.375 L 640.33984 184.375 L 640.33984 42.414062 z M 199.08594 165.75586 C 177.46687 165.75586 159.9707 183.25007 159.9707 204.86914 C 159.9707 226.48821 177.46687 243.98438 199.08594 243.98438 C 220.70501 243.98438 238.20117 226.48821 238.20117 204.86914 C 238.20117 183.25007 220.70501 165.75586 199.08594 165.75586 z M 561.48633 165.75586 C 539.86726 165.75586 522.37305 183.25007 522.37305 204.86914 C 522.37305 226.48821 539.86726 243.98438 561.48633 243.98438 C 583.1054 243.98438 600.60156 226.48821 600.60156 204.86914 C 600.60156 183.25007 583.1054 165.75586 561.48633 165.75586 z M 199.08594 186.375 C 209.20816 186.375 217.45508 194.62192 217.45508 204.74414 C 217.45508 214.86636 209.20816 223.11523 199.08594 223.11523 C 188.96371 223.11523 180.7168 214.86636 180.7168 204.74414 C 180.7168 194.62192 188.96371 186.375 199.08594 186.375 z M 561.48633 186.375 C 571.60855 186.375 579.85742 194.62192 579.85742 204.74414 C 579.85742 214.86636 571.60855 223.11523 561.48633 223.11523 C 551.36411 223.11523 543.11719 214.86636 543.11719 204.74414 C 543.11719 194.62192 551.36411 186.375 561.48633 186.375 z "
     transform="matrix(1.0002744,0,0,1.0002744,0,-0.03347171)"
     id="path8" />
</svg>
