<?xml version="1.0" encoding="UTF-8" standalone="no"?>
<!-- Created with Inkscape (http://www.inkscape.org/) -->

<svg
   xmlns:dc="http://purl.org/dc/elements/1.1/"
   xmlns:cc="http://creativecommons.org/ns#"
   xmlns:rdf="http://www.w3.org/1999/02/22-rdf-syntax-ns#"
   xmlns:svg="http://www.w3.org/2000/svg"
   xmlns="http://www.w3.org/2000/svg"
   xmlns:sodipodi="http://sodipodi.sourceforge.net/DTD/sodipodi-0.dtd"
   xmlns:inkscape="http://www.inkscape.org/namespaces/inkscape"
   id="svg2"
   version="1.1"
   inkscape:version="0.91 r13725"
   xml:space="preserve"
   width="729.18585"
   height="243.95625"
   viewBox="0 0 729.18585 243.95625"
   sodipodi:docname="bus_icon.svg"><metadata
     id="metadata8"><rdf:RDF><cc:Work
         rdf:about=""><dc:format>image/svg+xml</dc:format><dc:type
           rdf:resource="http://purl.org/dc/dcmitype/StillImage" /><dc:title></dc:title></cc:Work></rdf:RDF></metadata><defs
     id="defs6" /><sodipodi:namedview
     pagecolor="#ffffff"
     bordercolor="#666666"
     borderopacity="1"
     objecttolerance="10"
     gridtolerance="10"
     guidetolerance="10"
     inkscape:pageopacity="0"
     inkscape:pageshadow="2"
     inkscape:window-width="1357"
     inkscape:window-height="787"
     id="namedview4"
     showgrid="false"
     inkscape:zoom="0.47755102"
     inkscape:cx="742.39056"
     inkscape:cy="150.68875"
     inkscape:window-x="34"
     inkscape:window-y="34"
     inkscape:window-maximized="0"
     inkscape:current-layer="g10"
     fit-margin-top="0"
     fit-margin-left="0"
     fit-margin-right="0"
     fit-margin-bottom="0" /><g
     id="g10"
     inkscape:groupmode="layer"
     inkscape:label="ink_ext_XXXXXX"
     transform="matrix(1.25,0,0,-1.25,-132.60944,705.7675)"><path
       inkscape:connector-curvature="0"
       id="path26"
       style="fill:#231f20;fill-opacity:1;fill-rule:nonzero;stroke:none"
       d="m 555.37233,386.091 c 8.093,0 14.653,6.56 14.653,14.653 0,8.092 -6.56,14.652 -14.653,14.652 -8.092,0 -14.652,-6.56 -14.652,-14.652 0,-8.093 6.56,-14.653 14.652,-14.653 z m 0,45.947 c 17.284,0 31.295,-14.011 31.295,-31.294 0,-17.284 -14.011,-31.295 -31.295,-31.295 -17.283,0 -31.294,14.011 -31.294,31.295 0,17.283 14.011,31.294 31.294,31.294" /><path
       inkscape:connector-curvature="0"
       id="path28"
       style="fill:#231f20;fill-opacity:1;fill-rule:nonzero;stroke:none"
       d="m 265.36433,386.091 c 8.092,0 14.652,6.56 14.652,14.653 0,8.092 -6.56,14.652 -14.652,14.652 -8.092,0 -14.652,-6.56 -14.652,-14.652 0,-8.093 6.56,-14.653 14.652,-14.653 z m 0,45.947 c 17.284,0 31.294,-14.011 31.294,-31.294 0,-17.284 -14.01,-31.295 -31.294,-31.295 -17.284,0 -31.294,14.011 -31.294,31.295 0,17.283 14.01,31.294 31.294,31.294" /><path
       inkscape:connector-curvature="0"
       id="path30"
       style="fill:#231f20;fill-opacity:1;fill-rule:nonzero;stroke:none"
       d="m 123.24533,481.902 101.207,0 0,48.827 -85.449,0 c -8.703,0 -15.758,-7.055 -15.758,-15.758 z m 121.626,0 101.207,0 0,48.827 -101.207,0 z m 121.626,0 101.207,0 0,48.827 -101.207,0 z m 121.626,0 101.207,0 0,48.827 -101.207,0 z m 130.504,-64.808 30.184,0 0,113.635 -30.184,0 z m -512.102,113.784 c 1.184,20.714 15.388,33.736 41.43,33.736 l 506.035,0 c 24.858,0 24.858,-4.144 24.858,-17.164 l 0,-66.88 c 0,0 10.062,-2.367 10.062,-12.429 0,-10.061 4.734,-74.574 -14.205,-74.574 l -81.676,0 c 0,0 2.367,45.574 -38.471,45.574 -40.838,0 -38.47,-46.165 -38.47,-46.165 l -209.516,0 c 0,0 -2.368,47.348 -41.43,47.348 -39.063,0 -40.02057,-47.47543 -40.02057,-47.47543 l -118.18772,0.0539 c 0,0 -1.59271,117.26057 -0.40871,137.97557"
       sodipodi:nodetypes="cccssccccccccccccccccccccccssscsscsccsccc" /></g></svg>