<svg xmlns="http://www.w3.org/2000/svg" width="729" height="244" viewBox="0 0 729.2 244" class="undefined"><style>  
  .a{
    fill:#231f20;
  }
</style><path d="M52.1 0.1C19.6 0.1 1.9 16.3 0.4 42.2L0.4 42.3C-1.1 68.2 0.9 214.7 0.9 214.7L148.6 214.9C148.6 214.9 149.7 155.5 198.6 155.5 247.3 155.5 250.3 214.6 250.3 214.6L512.1 214.6C512.1 214.6 509.3 156.9 560.2 156.9 611.3 156.9 608.3 213.9 608.3 213.9L710.4 213.9C734.1 213.9 728.2 133.3 728.2 120.6 728.2 108.1 715.6 105.1 715.6 105.1L715.6 21.5C715.6 5.2 715.6 0.1 684.5 0.1L52.1 0.1zM41.1 42.4L147.8 42.4 147.8 103.4 21.4 103.4 21.4 62.2C21.4 51.3 30.3 42.4 41.1 42.4zM173.3 42.4L299.8 42.4 299.8 103.4 173.3 103.4 173.3 42.4zM325.3 42.4L451.8 42.4 451.8 103.4 325.3 103.4 325.3 42.4zM477.3 42.4L603.7 42.4 603.7 103.4 477.3 103.4 477.3 42.4zM640.3 42.4L678.1 42.4 678.1 184.4 640.3 184.4 640.3 42.4zM199.1 165.8C177.5 165.8 160 183.3 160 204.9 160 226.5 177.5 244 199.1 244 220.7 244 238.2 226.5 238.2 204.9 238.2 183.3 220.7 165.8 199.1 165.8zM561.5 165.8C539.9 165.8 522.4 183.3 522.4 204.9 522.4 226.5 539.9 244 561.5 244 583.1 244 600.6 226.5 600.6 204.9 600.6 183.3 583.1 165.8 561.5 165.8zM199.1 186.4C209.2 186.4 217.5 194.6 217.5 204.7 217.5 214.9 209.2 223.1 199.1 223.1 189 223.1 180.7 214.9 180.7 204.7 180.7 194.6 189 186.4 199.1 186.4zM561.5 186.4C571.6 186.4 579.9 194.6 579.9 204.7 579.9 214.9 571.6 223.1 561.5 223.1 551.4 223.1 543.1 214.9 543.1 204.7 543.1 194.6 551.4 186.4 561.5 186.4z" fill="#231f20"/></svg>